<?xml version="1.0" standalone="no"?>
<!DOCTYPE svg PUBLIC "-//W3C//DTD SVG 20010904//EN"
 "http://www.w3.org/TR/2001/REC-SVG-20010904/DTD/svg10.dtd">
<svg version="1.0" xmlns="http://www.w3.org/2000/svg"
 width="260.000000pt" height="260.000000pt" viewBox="0 0 260.000000 260.000000"
 preserveAspectRatio="xMidYMid meet">
<metadata>
Created by potrace 1.11, written by Peter Selinger 2001-2013
</metadata>
<g transform="translate(0.000000,260.000000) scale(0.100000,-0.100000)"
fill="#000000" stroke="none">
<path d="M826 2264 c-16 -41 -7 -54 34 -54 39 0 40 1 40 35 0 33 -2 35 -34 35
-22 0 -36 -6 -40 -16z"/>
<path d="M380 2251 c-32 -9 -49 -54 -32 -81 10 -17 10 -20 -5 -20 -14 0 -15
-2 -4 -9 11 -7 10 -11 -5 -19 -33 -17 -89 -19 -79 -2 9 14 5 13 -40 -10 -22
-11 -44 -20 -51 -20 -26 0 -32 -31 -35 -175 -3 -141 -5 -151 -26 -171 -28 -26
-29 -44 -4 -70 10 -12 17 -32 16 -50 -1 -16 -3 -49 -4 -74 -2 -25 -5 -40 -7
-34 -3 8 -18 9 -47 3 -23 -4 -45 -8 -49 -9 -5 0 -8 -158 -8 -350 l0 -351 23 4
c34 6 61 19 74 36 10 13 13 9 13 -24 1 -22 4 -60 6 -85 3 -25 1 -57 -5 -70 -8
-22 -10 -22 -11 -5 -1 18 -2 18 -11 3 -8 -14 -15 -15 -36 -7 -49 18 -53 9 -53
-116 l0 -115 60 0 c67 0 64 5 75 -104 4 -47 17 -78 60 -155 30 -52 55 -99 55
-103 0 -4 6 -8 14 -8 8 0 24 -13 36 -30 l21 -30 225 0 c222 0 224 0 224 21 0
19 4 21 34 16 28 -4 34 -3 29 9 -6 17 8 19 24 3 9 -9 23 -9 53 -1 22 5 50 7
62 4 21 -5 21 -6 2 -13 -15 -5 -10 -9 24 -14 23 -4 42 -11 42 -16 0 -16 57 -9
71 8 11 13 11 17 2 20 -7 3 -13 14 -13 25 0 11 -8 22 -18 25 -10 2 -23 13 -30
24 -11 16 -9 19 8 19 11 0 20 2 20 5 0 10 -65 64 -77 65 -7 0 -10 7 -6 15 4
11 -6 20 -35 32 -48 18 -60 39 -30 49 16 5 27 0 39 -15 9 -11 27 -21 38 -21
12 0 35 -13 53 -30 17 -16 36 -30 42 -31 6 0 27 -2 46 -4 31 -4 33 -3 18 9
-10 7 -18 17 -18 23 0 15 -57 53 -80 53 -11 0 -20 7 -20 16 0 8 -4 12 -10 9
-5 -3 -7 0 -4 9 5 13 11 12 42 -4 20 -11 46 -20 57 -20 12 0 26 -5 31 -10 15
-15 114 -39 120 -28 3 5 -8 13 -25 19 -37 13 -41 29 -7 29 13 0 29 6 35 14 9
11 4 15 -29 20 -38 6 -57 26 -25 26 8 0 15 -4 15 -9 0 -11 67 -20 94 -13 18 5
18 6 1 19 -20 14 -9 18 14 4 10 -6 11 -13 2 -29 -15 -27 -13 -41 2 -22 17 22
65 41 72 30 4 -6 -3 -10 -14 -10 -25 0 -28 -15 -5 -24 10 -4 25 1 35 10 12 11
27 14 45 10 25 -7 26 -6 9 10 -16 17 -16 18 5 26 12 4 26 6 30 3 5 -3 10 0 12
6 2 6 69 16 168 25 227 19 390 50 390 74 0 14 -59 22 -109 15 -67 -9 -165 11
-234 47 -109 59 -220 207 -262 350 -17 60 -24 274 -10 318 5 15 4 20 -3 16
-16 -9 -32 27 -32 71 l-1 38 -15 -25 c-14 -23 -14 -24 -9 -2 3 12 8 31 11 42
3 11 3 20 -1 20 -9 0 -39 -78 -59 -152 -14 -52 -21 -65 -33 -61 -21 8 -12 97
20 192 13 39 20 68 16 65 -5 -3 -9 0 -9 5 0 6 -17 11 -38 11 -34 0 -39 -3 -51
-35 -7 -19 -16 -35 -22 -35 -5 0 3 26 16 58 l25 57 -35 -40 c-19 -22 -46 -62
-59 -90 -14 -27 -25 -45 -26 -40 0 18 30 109 51 154 11 25 22 61 24 80 1 20 6
44 10 53 9 22 -30 33 -90 25 -24 -4 -70 -2 -102 5 -32 6 -146 12 -253 13 -107
1 -239 3 -292 3 l-98 2 12 28 c7 15 17 33 22 41 6 8 9 24 8 37 -2 13 2 33 9
46 7 13 14 40 15 60 1 21 9 45 18 54 9 8 16 27 16 40 0 14 4 23 9 20 5 -4 7 2
4 12 -2 10 7 29 22 46 14 15 23 32 20 37 -4 5 -1 9 4 9 6 0 11 4 11 9 0 4 -29
11 -65 14 -69 7 -109 22 -100 37 4 6 60 8 133 6 125 -5 126 -5 37 5 -49 5
-119 13 -155 18 l-65 8 70 2 70 1 -1 31 c0 17 -7 34 -14 39 -7 4 -9 13 -6 19
8 12 -91 14 -134 2z m390 -738 c11 -10 20 -24 20 -32 0 -11 -4 -10 -14 4 -11
16 -25 20 -67 20 -48 0 -54 -2 -51 -20 2 -11 9 -23 15 -27 18 -11 67 -10 67 2
0 6 -9 10 -20 10 -11 0 -20 5 -20 10 0 6 11 10 25 10 20 0 25 -5 25 -25 0 -24
-3 -25 -55 -25 l-55 0 0 45 0 45 55 0 c37 0 61 -5 75 -17z m234 -15 c-3 -5
-15 -8 -25 -5 -11 3 -19 1 -19 -4 0 -4 -7 -6 -15 -3 -25 10 -17 27 10 22 14
-3 28 -1 31 4 3 4 10 6 15 2 5 -3 6 -10 3 -16z m-164 -3 c0 -8 -2 -15 -4 -15
-2 0 -6 7 -10 15 -3 8 -1 15 4 15 6 0 10 -7 10 -15z m70 -2 c0 -14 -2 -15 -9
-4 -5 7 -14 10 -20 7 -6 -4 -11 -2 -11 3 0 6 9 11 20 11 12 0 20 -7 20 -17z
m130 2 c0 -8 -2 -15 -4 -15 -2 0 -6 7 -10 15 -3 8 -1 15 4 15 6 0 10 -7 10
-15z m475 -819 c23 -28 67 -69 98 -90 63 -44 71 -61 10 -23 -47 30 -138 128
-159 171 -8 17 -9 22 -2 12 7 -11 31 -42 53 -70z m-1405 -176 c0 -5 -4 -10
-10 -10 -5 0 -10 5 -10 10 0 6 5 10 10 10 6 0 10 -4 10 -10z m393 3 c-7 -2
-21 -2 -30 0 -10 3 -4 5 12 5 17 0 24 -2 18 -5z m994 -129 c-3 -3 -12 -4 -19
-1 -8 3 -5 6 6 6 11 1 17 -2 13 -5z m-315 -34 c26 0 48 -23 35 -36 -8 -9 -87
35 -87 48 0 9 3 9 12 0 7 -7 25 -12 40 -12z m-314 -10 c26 -24 28 -37 6 -37
-8 0 -22 13 -30 29 -17 33 -7 36 24 8z m132 -14 c0 -11 -19 -15 -25 -6 -3 5 1
10 9 10 9 0 16 -2 16 -4z m-10 -166 c0 -5 -2 -10 -4 -10 -3 0 -8 5 -11 10 -3
6 -1 10 4 10 6 0 11 -4 11 -10z"/>
<path d="M650 2187 c-10 -27 11 -47 52 -47 27 0 41 -19 16 -21 -39 -4 104 -17
197 -18 120 -1 128 8 33 43 -27 10 -48 22 -48 27 0 5 -17 6 -40 3 -27 -4 -40
-3 -40 5 0 7 -19 11 -48 11 -26 0 -62 4 -80 9 -29 9 -34 7 -42 -12z"/>
<path d="M2283 2143 c-27 -10 -11 -30 39 -46 60 -19 71 -15 56 18 -13 30 -59
43 -95 28z"/>
<path d="M616 1983 c-3 -3 -6 -53 -6 -109 l0 -103 100 -3 c76 -2 101 0 105 10
3 8 5 54 5 103 0 84 -1 89 -22 93 -44 9 -175 15 -182 9z m119 -34 c11 -16 1
-19 -13 -3 -7 8 -8 14 -3 14 5 0 13 -5 16 -11z m-23 -34 c8 -11 1 -25 -14 -25
-5 0 -7 7 -4 15 3 9 -1 18 -9 21 -8 4 -15 11 -15 16 0 10 29 -8 42 -27z m63
15 c3 -5 2 -10 -4 -10 -5 0 -13 5 -16 10 -3 6 -2 10 4 10 5 0 13 -4 16 -10z
m9 -37 c3 -7 1 -13 -3 -13 -5 0 -17 -3 -27 -7 -12 -4 -15 -3 -10 5 4 7 2 12
-4 12 -6 0 -9 4 -6 8 8 13 45 9 50 -5z m-109 -33 c3 -5 2 -10 -4 -10 -5 0 -13
5 -16 10 -3 6 -2 10 4 10 5 0 13 -4 16 -10z m45 -10 c0 -5 -7 -7 -15 -4 -8 4
-15 8 -15 10 0 2 7 4 15 4 8 0 15 -4 15 -10z m50 -36 c0 -2 -7 -4 -15 -4 -8 0
-15 4 -15 10 0 5 7 7 15 4 8 -4 15 -8 15 -10z"/>
<path d="M858 1937 c-10 -47 -9 -149 2 -182 6 -20 20 -40 31 -46 22 -11 277
-11 284 1 6 10 -31 17 -138 26 -56 4 -91 12 -99 21 -7 9 -11 45 -9 98 2 88
-10 115 -36 80 -11 -16 -13 -17 -13 -3 0 26 -17 30 -22 5z"/>
<path d="M946 1924 c-3 -9 -6 -42 -6 -74 0 -44 4 -59 16 -64 9 -3 75 -6 147
-7 73 0 169 -4 215 -7 l82 -7 0 67 0 68 -42 0 c-24 0 -119 9 -213 20 -205 24
-192 24 -199 4z"/>
<path d="M2278 1853 c-2 -4 -2 -38 0 -75 3 -49 8 -68 19 -72 9 -4 17 -5 19 -3
2 2 5 37 6 78 3 69 2 74 -19 77 -11 2 -23 0 -25 -5z"/>
<path d="M1887 1649 c-117 -27 -239 -123 -295 -230 -20 -38 -29 -65 -23 -67 6
-2 11 -11 11 -19 0 -12 -3 -13 -14 -4 -11 9 -15 6 -20 -15 -5 -18 -3 -30 6
-35 10 -7 9 -9 -4 -9 -10 0 -22 -16 -32 -47 -18 -52 -21 -123 -6 -123 6 0 10
-9 10 -20 0 -11 -4 -20 -10 -20 -5 0 -10 -10 -10 -22 0 -17 3 -19 9 -10 6 10
10 7 13 -13 4 -19 2 -25 -8 -21 -19 7 -18 -16 2 -40 8 -10 13 -13 9 -6 -3 6
-1 12 4 12 14 0 14 -17 1 -25 -16 -10 -12 -38 5 -31 10 4 15 -1 15 -15 0 -12
-4 -17 -11 -13 -12 7 -7 -15 13 -68 12 -31 18 -34 36 -16 9 9 12 9 12 0 0 -7
-7 -15 -15 -18 -36 -14 106 -172 190 -210 40 -19 66 -24 125 -23 l75 2 -75 7
c-67 7 -169 38 -130 40 12 0 11 3 -3 11 -14 8 -16 14 -6 25 9 11 9 14 -1 14
-6 0 -14 -9 -17 -20 -6 -24 -23 -17 -23 10 0 28 10 30 75 14 85 -20 175 -19
190 3 8 11 18 14 31 8 10 -4 31 -7 45 -6 17 1 29 -4 33 -15 8 -21 4 -25 -23
-27 -25 -2 -29 -27 -3 -27 30 0 117 66 178 135 32 36 62 65 67 65 12 0 42 39
86 108 30 48 34 63 39 143 3 71 0 109 -18 182 -12 51 -26 101 -31 112 -4 11
-13 38 -20 60 -16 53 -134 169 -214 212 -109 57 -185 72 -268 52z m-247 -230
c0 -6 -4 -7 -10 -4 -5 3 -10 11 -10 16 0 6 5 7 10 4 6 -3 10 -11 10 -16z m254
-9 c22 -11 50 -29 63 -41 24 -23 31 -63 13 -74 -5 -3 -10 -17 -10 -31 0 -37
-16 -30 -75 35 -19 21 -24 30 -12 26 14 -6 17 -2 17 24 0 28 -2 31 -24 25 -18
-4 -27 -1 -36 15 -22 43 5 52 64 21z m-67 -165 l38 -33 -2 -83 c-1 -46 -7 -95
-13 -109 -12 -27 -75 -80 -97 -80 -16 0 -17 26 -2 36 18 11 59 112 59 144 0
29 -45 136 -61 146 -5 3 -7 9 -4 14 9 14 42 0 82 -35z m-7 -336 c0 -5 -9 -9
-20 -9 -22 0 -27 16 -7 23 15 5 27 -1 27 -14z m480 -19 c0 -5 -4 -10 -10 -10
-5 0 -10 5 -10 10 0 6 5 10 10 10 6 0 10 -4 10 -10z m-23 -56 c-9 -9 -28 6
-21 18 4 6 10 6 17 -1 6 -6 8 -13 4 -17z m-618 -21 l22 -38 -26 28 c-14 15
-25 32 -25 38 0 17 8 9 29 -28z m-89 17 c0 -5 -2 -10 -4 -10 -3 0 -8 5 -11 10
-3 6 -1 10 4 10 6 0 11 -4 11 -10z m255 -20 c119 -5 120 -5 117 -29 -3 -21 -1
-23 21 -17 21 5 24 3 20 -12 -3 -13 5 -22 28 -33 l33 -16 -27 -17 c-38 -26
-139 -33 -156 -12 -7 9 -10 16 -7 16 12 0 -17 26 -49 44 -27 15 -28 16 -5 11
24 -6 24 -5 6 9 -11 9 -25 16 -32 16 -14 0 -104 49 -104 57 0 3 8 1 18 -3 9
-5 71 -11 137 -14z m425 -19 c0 -6 -4 -13 -10 -16 -5 -3 -10 1 -10 9 0 9 5 16
10 16 6 0 10 -4 10 -9z m-60 -86 c0 -16 -27 -32 -37 -22 -3 4 -3 13 0 22 8 20
37 20 37 0z m-497 -39 c-3 -16 -10 -23 -19 -19 -17 6 -18 15 -2 31 19 19 26
14 21 -12z m433 5 c-4 -5 0 -11 6 -14 7 -2 10 -8 6 -12 -11 -12 -38 2 -38 20
0 8 7 15 16 15 8 0 13 -4 10 -9z"/>
<path d="M2365 1500 c8 -9 20 -31 26 -48 20 -59 37 -34 23 35 -5 25 -11 30
-35 30 -26 0 -28 -2 -14 -17z"/>
<path d="M2397 803 c-36 -58 -39 -73 -18 -73 10 0 23 6 29 13 11 14 27 97 18
97 -3 0 -16 -17 -29 -37z"/>
</g>
</svg>
